<svg width="74" height="103" viewBox="0 0 74 103" fill="none" xmlns="http://www.w3.org/2000/svg">
<g filter="url(#filter0_d_130_5)">
<path fill-rule="evenodd" clip-rule="evenodd" d="M40.7941 0.0429279C40.2221 0.230398 39.6988 0.72771 39.4816 1.29026C39.353 1.62338 39.347 1.90825 39.347 7.73965V13.8406L39.5127 14.1735C39.8617 14.8748 40.5274 15.2824 41.3279 15.2849C42.1692 15.2875 42.7919 14.8646 43.1079 14.0761C43.2211 13.7938 43.2306 13.3018 43.2306 7.73965C43.2306 2.10948 43.2221 1.68509 43.1032 1.34457C42.9487 0.902273 42.5044 0.380558 42.112 0.180533C41.7986 0.0208519 41.0879 -0.0533464 40.7941 0.0429279ZM21.1106 5.69208C20.2613 5.99733 19.8235 6.61434 19.8235 7.50591C19.8235 8.16262 19.9228 8.41922 20.7052 9.78518C21.7052 11.531 24.6812 16.4749 24.8918 16.7401C25.1417 17.0549 25.5321 17.3106 25.9216 17.4147C26.3255 17.5226 26.9501 17.36 27.5552 16.9894C28.3801 16.4843 28.6414 15.8193 28.368 14.9204C28.1636 14.2481 28.0976 14.1231 26.5376 11.4532C25.8048 10.1989 24.8983 8.63807 24.5232 7.9846C23.7149 6.57674 23.541 6.33038 23.1329 6.01567C22.5582 5.57246 21.7867 5.44903 21.1106 5.69208ZM61.4122 9.17157C61.0106 9.28413 60.4993 9.63305 60.2313 9.97752C59.7986 10.5337 56.1187 15.7109 55.6057 16.4854C53.9589 18.9712 53.883 19.9425 55.2776 20.6855C55.7526 20.9385 55.8464 20.9632 56.3287 20.9621C57.3459 20.9598 57.8221 20.5417 59.2992 18.3545C59.8756 17.5011 61.048 15.8348 61.9046 14.6517C63.7574 12.0926 63.9082 11.8235 63.9035 11.0858C63.8994 10.4628 63.6634 9.89323 63.292 9.61027C62.739 9.18892 61.9812 9.0121 61.4122 9.17157ZM36.9816 19.0729C34.2408 19.2776 30.2489 20.4523 27.2022 21.9506C22.3419 24.3409 17.5354 28.1961 13.6534 32.8182C12.8115 33.8205 11.1366 36.0308 10.4234 37.0804C6.75182 42.4844 4.12083 48.5935 2.88044 54.5954C2.61473 55.8809 2.28661 58.1446 2.12724 59.7912C1.9587 61.5322 1.95736 65.1703 2.12463 66.8443C2.78144 73.419 4.88299 79.1731 8.33093 83.8375C10.6878 87.026 14.5564 90.1764 18.3031 91.9585C22.6657 94.0335 27.8267 95.0618 32.4589 94.7789C37.9525 94.4433 42.4957 92.8922 47.2553 89.7272C49.1518 88.466 50.7216 87.1913 52.6111 85.3779L53.5185 84.5071L53.4722 84.8554C53.4468 85.0469 53.2864 85.6525 53.1159 86.2011C52.2048 89.1325 50.5547 92.1259 48.5064 94.5628C47.7826 95.4241 46.0525 97.1105 45.1017 97.8817C43.9949 98.7795 44.054 98.9426 45.5055 98.9931C46.4569 99.0262 47.1884 98.9431 48.2187 98.6847C51.8034 97.7856 55.6734 95.2686 58.6223 91.9179C61.3937 88.7692 63.5974 84.6169 64.9047 80.0806C65.4642 78.1393 65.7594 76.7639 66.1786 74.1442C66.3587 73.0193 66.6161 71.4482 66.7505 70.653C66.8849 69.8577 67.1694 68.0645 67.3825 66.668C67.7867 64.0196 68.0754 62.1622 68.5445 59.1917C68.8583 57.2043 69.2744 54.2662 69.3964 53.1762C69.531 51.974 69.3879 51.4389 68.8321 51.0648L68.5938 50.9044H60.0997C51.3686 50.9044 50.5765 50.9249 48.9147 51.1943C42.334 52.261 36.3526 55.6275 32.4829 60.4422C31.1247 62.132 29.813 64.2519 28.9618 66.1327C27.3223 69.755 26.3442 74.3167 26.4876 77.6708C26.5468 79.0534 26.7008 79.7514 26.9467 79.7514C27.0862 79.7514 27.0888 79.7473 27.8893 78.278C29.4176 75.473 30.9866 73.3852 33.2751 71.1114C37.1149 67.2963 42.2012 64.059 46.6744 62.5833C47.711 62.2413 49.6208 61.8097 49.6208 61.9174C49.6208 61.953 49.5651 62.0033 49.4972 62.0291C48.9131 62.2512 46.2362 63.9158 44.602 65.0732C38.3337 69.5125 34.7273 73.1577 31.7901 78.0234C31.3632 78.7305 30.5314 80.3145 30.5679 80.3509C30.6261 80.409 32.4192 80.5971 33.6484 80.674C35.0522 80.7618 37.0443 80.6852 38.4644 80.4887C42.9336 79.8704 47.026 78.0718 50.7958 75.0692C52.7594 73.5052 54.0977 72.1145 56.2167 69.4359C56.4851 69.0964 56.7148 68.8286 56.7268 68.8408C56.739 68.8528 56.6418 69.21 56.511 69.6344C55.3876 73.2786 53.6735 76.582 51.7189 78.8698C49.2301 81.7827 46.1947 84.0225 42.7362 85.4981C39.8767 86.7181 37.1975 87.2573 34.016 87.2533C32.3459 87.2511 31.6553 87.1956 30.0972 86.9386C25.2227 86.1344 20.6665 83.4139 17.7062 79.5397C14.9778 75.9691 13.3557 71.4502 12.8197 65.9274C12.6983 64.6768 12.6973 60.5427 12.818 59.3681C13.5892 51.8692 15.6782 45.6417 19.3245 39.9721C21.1129 37.1913 23.4372 34.5621 25.9769 32.4471C27.9339 30.8173 30.3219 29.3232 32.379 28.4414C34.8674 27.3747 36.5941 26.9633 39.2058 26.8147C41.7573 26.6694 45.3311 27.4669 47.6378 28.6963C51.0879 30.5349 53.3394 33.5061 53.7877 36.8119C53.8854 37.532 54.0163 37.7735 54.4238 37.9852C54.6945 38.1257 54.811 38.1441 55.2342 38.1133C56.0299 38.0553 57.8852 37.4337 59.2162 36.7793C59.7158 36.5336 60.0214 36.1861 60.1468 35.7209C60.2988 35.1572 59.8375 33.1544 59.1943 31.5859C57.8954 28.4181 55.893 25.7764 53.1865 23.6601C50.0084 21.175 45.9166 19.5917 41.485 19.1323C40.5461 19.035 37.9485 19.0007 36.9816 19.0729ZM8.74456 20.9401C7.14893 21.3981 7.17873 23.5179 8.79237 24.3426C9.11216 24.5061 11.826 25.5916 12.5154 25.8318C13.7295 26.2549 14.5793 25.9894 15.2846 24.9666C15.5211 24.6236 15.5492 24.5358 15.5503 24.1376C15.5515 23.7548 15.5219 23.6505 15.3398 23.3948C15.0049 22.9245 14.6698 22.7352 12.9028 22.0181C10.9483 21.2248 10.3881 21.0296 9.78528 20.9319C9.25571 20.8461 9.06683 20.8476 8.74456 20.9401ZM67.485 28.9088C66.8442 28.9415 66.0692 29.0152 65.7627 29.0726C64.3731 29.3328 63.3736 30.2212 63.5966 30.9978C63.7176 31.4193 64.1219 32.0841 64.4039 32.3252C64.892 32.7425 65.2761 32.7815 67.1406 32.6031C69.5535 32.3723 70.3787 32.2358 70.8716 31.9863C72.1963 31.3157 72.4029 29.6089 71.2339 28.9924C70.9424 28.8387 70.8504 28.8289 69.7864 28.8387C69.1614 28.8445 68.1258 28.876 67.485 28.9088Z" fill="white"/>
</g>
<defs>
<filter id="filter0_d_130_5" x="0" y="0" width="74" height="103" filterUnits="userSpaceOnUse" color-interpolation-filters="sRGB">
<feFlood flood-opacity="0" result="BackgroundImageFix"/>
<feColorMatrix in="SourceAlpha" type="matrix" values="0 0 0 0 0 0 0 0 0 0 0 0 0 0 0 0 0 0 127 0" result="hardAlpha"/>
<feOffset dy="2"/>
<feGaussianBlur stdDeviation="1"/>
<feComposite in2="hardAlpha" operator="out"/>
<feColorMatrix type="matrix" values="0 0 0 0 0 0 0 0 0 0 0 0 0 0 0 0 0 0 0.25 0"/>
<feBlend mode="normal" in2="BackgroundImageFix" result="effect1_dropShadow_130_5"/>
<feBlend mode="normal" in="SourceGraphic" in2="effect1_dropShadow_130_5" result="shape"/>
</filter>
</defs>
</svg>
