<svg width="150" height="69" viewBox="0 0 150 69" fill="none" xmlns="http://www.w3.org/2000/svg">
<path fill-rule="evenodd" clip-rule="evenodd" d="M25.2371 0.799491C25.0832 1.05046 24.9161 3.0362 24.8657 5.21247C24.7735 9.21059 25.3644 10.9064 26.4649 9.80011C27.197 9.0641 26.8781 0.796418 26.1078 0.540325C25.7832 0.432254 25.3914 0.549032 25.2371 0.799491ZM12.1779 4.7218C12.1779 6.26245 15.3142 11.2137 16.1833 11.0452C17.5681 10.7774 17.3923 9.40061 15.6372 6.76593C13.9452 4.22549 12.1779 3.18115 12.1779 4.7218ZM36.9365 9.17166C34.7605 12.1019 34.4156 13.3291 35.6924 13.5954C36.6109 13.787 40.8675 8.30607 40.5486 7.34316C40.113 6.02787 38.7634 6.71113 36.9365 9.17166ZM130.029 10.9981C129.08 11.184 128.96 11.4647 129.198 12.9403C129.575 15.2769 128.197 19.6684 122.366 34.7143C115.79 51.6789 114.581 55.3886 114.581 58.5898C114.581 60.9054 114.773 61.4268 115.982 62.3897C117.173 63.3383 117.828 63.4658 120.353 63.2399C121.986 63.094 123.415 62.8814 123.528 62.7672C123.641 62.6535 123.528 61.8376 123.275 60.9535C122.07 56.7285 127.419 41.1351 131.271 37.6455C132.708 36.3446 134.697 36.0598 135.65 37.0186C136.862 38.2371 136.701 39.7634 134.733 45.6766C131.463 55.5034 131.261 60.6329 134.069 62.6099C136.671 64.4425 141.414 63.0525 144.915 59.4313C147.051 57.2212 150.45 51.6446 149.951 51.1682C149.766 50.9921 149.355 51.2763 149.038 51.7993C146.151 56.5569 143.489 58.5709 141.631 57.402C140.109 56.4443 140.402 53.4341 142.655 46.8746C146.085 36.8885 145.567 32.1011 140.93 30.9185C138.444 30.2849 135.151 31.59 132.356 34.3169C131.171 35.4729 130.336 36.0926 130.501 35.6946C138.317 16.772 139.391 12.9198 137.282 11.3689C136.346 10.6806 132.625 10.49 130.029 10.9981ZM19.1403 13.7209C15.2887 15.0941 12.9823 16.585 9.94745 19.6653C5.13604 24.5485 2.13884 30.1666 0.757166 36.8931C-0.245975 41.7753 -0.251579 44.8003 0.735769 49.0109C3.0243 58.7716 10.0646 64.5255 19.8199 64.6085C24.7612 64.65 27.5832 63.6548 31.3695 60.5356C32.5831 59.5363 33.5755 58.9668 33.5755 59.2705C33.5755 60.4721 31.289 64.6131 29.6766 66.332C28.7386 67.3318 27.9714 68.2583 27.9714 68.391C27.9714 68.8064 31.691 67.953 33.1216 67.2088C35.5044 65.9704 37.7654 63.262 39.5241 59.5384C40.894 56.6379 41.5359 54.0759 42.7801 46.5381C43.6324 41.3743 44.2601 36.5443 44.175 35.8042L44.0196 34.4582L37.1418 34.5048C30.7999 34.5479 29.9863 34.6657 26.6977 36.0183C22.2068 37.8658 18.7862 41.1433 17.6052 44.7316C16.5293 48.0024 15.9678 52.1286 16.5991 52.1286C16.8655 52.1286 17.8304 51.1257 18.7444 49.9001C20.6896 47.29 24.0959 44.5944 27.8272 42.7131C30.722 41.2529 31.0282 41.1648 31.0282 41.7907C31.0282 42.0206 30.1687 42.7003 29.1177 43.3016C24.8539 45.7406 18.747 52.334 19.5468 53.6349C20.0537 54.4601 24.9355 54.2823 27.6896 53.3389C30.0714 52.523 33.8639 49.3695 34.9903 47.2669C35.9756 45.4282 36.29 46.9315 35.406 49.2578C33.6076 53.9929 28.1395 58.4326 23.2817 59.102C17.9654 59.8344 12.4652 57.3078 9.64584 52.8385C4.84972 45.2356 7.61358 30.4289 15.2133 23.014C21.6626 16.7218 30.3812 17.0685 33.5964 23.7454C34.6087 25.8479 34.8589 26.0522 36.0597 25.7542C38.0043 25.2717 38.3278 24.758 37.9529 22.7487C36.5758 15.3686 27.1751 10.8578 19.1403 13.7209ZM4.02642 14.7258C4.02642 15.3189 6.70876 16.7878 7.79189 16.7878C9.23623 16.7878 9.1486 15.8039 7.63447 15.0172C5.92164 14.1265 4.02642 13.9734 4.02642 14.7258ZM40.9353 19.9055C40.7473 20.2118 40.8441 20.7148 41.1503 21.0226C41.8488 21.7248 45.3758 20.9196 45.6789 19.989C45.9449 19.1726 41.4346 19.0932 40.9353 19.9055ZM57.3305 31.3687C54.4942 32.3854 51.9617 34.5883 49.6008 38.0922C46.6765 42.4319 45.55 46.2641 45.549 51.8725C45.548 55.8337 45.7243 56.792 46.8023 58.684C48.3852 61.4637 50.6488 62.8799 54.076 63.2353C58.4584 63.6901 62.3253 61.4012 65.618 56.4038L67.1545 54.0713L67.4979 55.5331C68.1031 58.1089 69.9123 60.8542 71.7662 62.0102C73.1418 62.8676 74.3619 63.1344 76.9154 63.137C80.9351 63.1411 83.3428 61.7935 86.5077 57.7683L88.519 55.2104L88.8619 56.7808C89.3556 59.039 91.854 61.6563 94.4788 62.6642C99.6764 64.6597 108.466 62.2678 110.578 58.283C112.174 55.2724 111.816 53.3461 108.38 46.4244C104.505 38.6192 103.969 35.5256 106.187 33.7719C107.112 33.0405 108.297 32.6681 109.682 32.6733C114.048 32.6896 114.225 34.7553 110.045 36.885C108.53 37.6558 107.188 38.3897 107.064 38.5157C106.527 39.0556 109.249 42.9031 110.46 43.3165C114.023 44.5319 117.123 41.6319 117.126 37.0796C117.128 34.8879 116.91 34.3722 115.359 32.9017C113.288 30.938 110.724 30.3474 106.509 30.8632C100.914 31.548 96.8366 34.4879 96.6725 37.9549C96.4677 42.2931 97.1183 43.7098 102.36 50.3359C105.134 53.8419 105.176 55.9485 102.496 57.0748C99.1435 58.4828 93.1832 57.2335 93.1832 55.1223C93.1832 54.0355 95.3311 52.6408 97.0042 52.6408C98.6768 52.6408 98.7873 52.5373 98.7853 50.9762C98.7843 50.0609 98.3293 48.5623 97.774 47.647C95.7071 44.2389 91.1897 46.1038 88.892 51.3132C88.2592 52.7478 86.7873 54.7858 85.6212 55.8419C83.8543 57.442 83.1294 57.7626 81.278 57.7626C76.4075 57.7626 74.2723 53.2564 76.4243 47.5189C76.8655 46.344 77.1681 46.2369 80.1042 46.218C90.1947 46.1534 94.1711 34.7691 85.2941 31.3605C78.0184 28.5676 69.3702 36.8747 67.5708 48.3845C66.9813 52.1573 66.7989 52.5378 64.3692 55.0737C62.0012 57.5455 61.6059 57.7626 59.4707 57.7626C54.4958 57.7626 52.3438 53.3123 54.5172 47.5189C54.9584 46.344 55.261 46.2369 58.1971 46.218C63.9489 46.1811 68.2193 42.5384 68.2193 37.6681C68.2193 34.8459 66.8672 32.9299 63.9291 31.5879C61.4663 30.4637 59.9934 30.4145 57.3305 31.3687ZM60.3057 37.9477C57.5159 40.8436 55.664 43.7749 56.2519 44.3654C56.9229 45.04 62.3874 41.5151 64.0401 39.3419C65.9267 36.8604 65.9807 35.5645 64.2088 35.3115C63.3091 35.183 62.3375 35.8391 60.3057 37.9477ZM82.2128 37.9477C79.423 40.8436 77.5711 43.7749 78.159 44.3654C78.83 45.04 84.2945 41.5151 85.9472 39.3419C87.8338 36.8604 87.8878 35.5645 86.1159 35.3115C85.2162 35.183 84.2446 35.8391 82.2128 37.9477Z" fill="white"/>
</svg>
